<svg width="41" height="40" viewBox="0 0 41 40" fill="none" xmlns="http://www.w3.org/2000/svg">
<path d="M8.43998 25.2859C8.43998 27.6108 6.56098 29.4898 4.2361 29.4898C1.91123 29.4898 0.0322266 27.6108 0.0322266 25.2859C0.0322266 22.961 1.91123 21.082 4.2361 21.082H8.43998V25.2859ZM10.5419 25.2859C10.5419 22.961 12.4209 21.082 14.7458 21.082C17.0707 21.082 18.9497 22.961 18.9497 25.2859V35.7956C18.9497 38.1205 17.0707 39.9995 14.7458 39.9995C12.4209 39.9995 10.5419 38.1205 10.5419 35.7956V25.2859Z" fill="#E01E5A"/>
<path d="M14.7454 8.40776C12.4205 8.40776 10.5415 6.52875 10.5415 4.20388C10.5415 1.87901 12.4205 0 14.7454 0C17.0703 0 18.9493 1.87901 18.9493 4.20388V8.40776H14.7454ZM14.7454 10.5415C17.0703 10.5415 18.9493 12.4205 18.9493 14.7454C18.9493 17.0703 17.0703 18.9493 14.7454 18.9493H4.20388C1.87901 18.9493 0 17.0703 0 14.7454C0 12.4205 1.87901 10.5415 4.20388 10.5415H14.7454Z" fill="#36C5F0"/>
<path d="M31.5927 14.7454C31.5927 12.4205 33.4717 10.5415 35.7966 10.5415C38.1215 10.5415 40.0005 12.4205 40.0005 14.7454C40.0005 17.0703 38.1215 18.9493 35.7966 18.9493H31.5927V14.7454ZM29.4908 14.7454C29.4908 17.0703 27.6118 18.9493 25.2869 18.9493C22.962 18.9493 21.083 17.0703 21.083 14.7454V4.20388C21.083 1.87901 22.962 0 25.2869 0C27.6118 0 29.4908 1.87901 29.4908 4.20388V14.7454Z" fill="#2EB67D"/>
<path d="M25.2869 31.5917C27.6118 31.5917 29.4908 33.4707 29.4908 35.7956C29.4908 38.1205 27.6118 39.9995 25.2869 39.9995C22.962 39.9995 21.083 38.1205 21.083 35.7956V31.5917H25.2869ZM25.2869 29.4898C22.962 29.4898 21.083 27.6108 21.083 25.2859C21.083 22.961 22.962 21.082 25.2869 21.082H35.8284C38.1533 21.082 40.0323 22.961 40.0323 25.2859C40.0323 27.6108 38.1533 29.4898 35.8284 29.4898H25.2869Z" fill="#ECB22E"/>
</svg>
