<svg width="38" height="41" viewBox="0 0 38 41" fill="none" xmlns="http://www.w3.org/2000/svg">
<path d="M19 16.8887H31.6667C35.1645 16.8887 38 19.7242 38 23.222V33.7776C38 37.2754 35.1645 40.1109 31.6667 40.1109C28.1689 40.1109 25.3333 37.2754 25.3333 33.7776V23.222C25.3333 19.7242 22.4978 16.8887 19 16.8887Z" fill="url(#paint0_radial_1011_748)"/>
<path d="M4.22266 21.1107C4.22266 17.6129 7.05822 14.7773 10.556 14.7773H19.0005C22.4982 14.7773 25.3338 17.6129 25.3338 21.1107V33.7773C25.3338 37.2751 28.1693 40.1107 31.6671 40.1107L14.7781 40.1106C8.9485 40.1106 4.22266 35.3847 4.22266 29.555V21.1107Z" fill="url(#paint1_radial_1011_748)"/>
<path d="M4.22266 21.1107C4.22266 17.6129 7.05822 14.7773 10.556 14.7773H19.0005C22.4982 14.7773 25.3338 17.6129 25.3338 21.1107V33.7773C25.3338 37.2751 28.1693 40.1107 31.6671 40.1107L14.7781 40.1106C8.9485 40.1106 4.22266 35.3847 4.22266 29.555V21.1107Z" fill="url(#paint2_linear_1011_748)" fill-opacity="0.7"/>
<path d="M4.22266 21.1107C4.22266 17.6129 7.05822 14.7773 10.556 14.7773H19.0005C22.4982 14.7773 25.3338 17.6129 25.3338 21.1107V33.7773C25.3338 37.2751 28.1693 40.1107 31.6671 40.1107L14.7781 40.1106C8.9485 40.1106 4.22266 35.3847 4.22266 29.555V21.1107Z" fill="url(#paint3_radial_1011_748)" fill-opacity="0.7"/>
<path d="M30.6108 14.7782C33.5256 14.7782 35.8886 12.4152 35.8886 9.50043C35.8886 6.58562 33.5256 4.22266 30.6108 4.22266C27.696 4.22266 25.333 6.58562 25.333 9.50043C25.333 12.4152 27.696 14.7782 30.6108 14.7782Z" fill="url(#paint4_radial_1011_748)"/>
<path d="M30.6108 14.7782C33.5256 14.7782 35.8886 12.4152 35.8886 9.50043C35.8886 6.58562 33.5256 4.22266 30.6108 4.22266C27.696 4.22266 25.333 6.58562 25.333 9.50043C25.333 12.4152 27.696 14.7782 30.6108 14.7782Z" fill="url(#paint5_radial_1011_748)" fill-opacity="0.46"/>
<path d="M30.6108 14.7782C33.5256 14.7782 35.8886 12.4152 35.8886 9.50043C35.8886 6.58562 33.5256 4.22266 30.6108 4.22266C27.696 4.22266 25.333 6.58562 25.333 9.50043C25.333 12.4152 27.696 14.7782 30.6108 14.7782Z" fill="url(#paint6_radial_1011_748)" fill-opacity="0.4"/>
<path d="M14.7777 12.6667C18.2755 12.6667 21.111 9.83113 21.111 6.33333C21.111 2.83553 18.2755 0 14.7777 0C11.2799 0 8.44434 2.83553 8.44434 6.33333C8.44434 9.83113 11.2799 12.6667 14.7777 12.6667Z" fill="url(#paint7_radial_1011_748)"/>
<path d="M14.7777 12.6667C18.2755 12.6667 21.111 9.83113 21.111 6.33333C21.111 2.83553 18.2755 0 14.7777 0C11.2799 0 8.44434 2.83553 8.44434 6.33333C8.44434 9.83113 11.2799 12.6667 14.7777 12.6667Z" fill="url(#paint8_radial_1011_748)" fill-opacity="0.6"/>
<path d="M14.7777 12.6667C18.2755 12.6667 21.111 9.83113 21.111 6.33333C21.111 2.83553 18.2755 0 14.7777 0C11.2799 0 8.44434 2.83553 8.44434 6.33333C8.44434 9.83113 11.2799 12.6667 14.7777 12.6667Z" fill="url(#paint9_radial_1011_748)" fill-opacity="0.5"/>
<path d="M13.4583 20.0547H3.43056C1.53591 20.0547 0 21.5906 0 23.4852V33.513C0 35.4077 1.53591 36.9436 3.43056 36.9436H13.4583C15.353 36.9436 16.8889 35.4077 16.8889 33.513V23.4852C16.8889 21.5906 15.353 20.0547 13.4583 20.0547Z" fill="url(#paint10_radial_1011_748)"/>
<path d="M13.4583 20.0547H3.43056C1.53591 20.0547 0 21.5906 0 23.4852V33.513C0 35.4077 1.53591 36.9436 3.43056 36.9436H13.4583C15.353 36.9436 16.8889 35.4077 16.8889 33.513V23.4852C16.8889 21.5906 15.353 20.0547 13.4583 20.0547Z" fill="url(#paint11_radial_1011_748)" fill-opacity="0.7"/>
<path d="M12.1172 25.4438H9.53411V33.3246H7.3546V25.4438H4.77148V23.6738H12.1172V25.4438Z" fill="white"/>
<defs>
<radialGradient id="paint0_radial_1011_748" cx="0" cy="0" r="1" gradientUnits="userSpaceOnUse" gradientTransform="translate(37.7855 19.1833) scale(14.2272 35.1177)">
<stop stop-color="#A98AFF"/>
<stop offset="0.14" stop-color="#8C75FF"/>
<stop offset="0.565" stop-color="#5F50E2"/>
<stop offset="0.9" stop-color="#3C2CB8"/>
</radialGradient>
<radialGradient id="paint1_radial_1011_748" cx="0" cy="0" r="1" gradientUnits="userSpaceOnUse" gradientTransform="translate(5.08029 13.0885) rotate(68.1539) scale(34.5716 34.9633)">
<stop stop-color="#85C2FF"/>
<stop offset="0.69" stop-color="#7588FF"/>
<stop offset="1" stop-color="#6459FE"/>
</radialGradient>
<linearGradient id="paint2_linear_1011_748" x1="17.516" y1="14.7773" x2="17.516" y2="40.1107" gradientUnits="userSpaceOnUse">
<stop offset="0.801159" stop-color="#6864F6" stop-opacity="0"/>
<stop offset="1" stop-color="#5149DE"/>
</linearGradient>
<radialGradient id="paint3_radial_1011_748" cx="0" cy="0" r="1" gradientUnits="userSpaceOnUse" gradientTransform="translate(24.806 13.9329) rotate(113.326) scale(20.2863 16.2844)">
<stop stop-color="#BD96FF"/>
<stop offset="0.686685" stop-color="#BD96FF" stop-opacity="0"/>
</radialGradient>
<radialGradient id="paint4_radial_1011_748" cx="0" cy="0" r="1" gradientUnits="userSpaceOnUse" gradientTransform="translate(30.6108 7.99247) rotate(-90) scale(10.5556 13.3228)">
<stop offset="0.268201" stop-color="#6868F7"/>
<stop offset="1" stop-color="#3923B1"/>
</radialGradient>
<radialGradient id="paint5_radial_1011_748" cx="0" cy="0" r="1" gradientUnits="userSpaceOnUse" gradientTransform="translate(26.2488 6.90799) rotate(40.0516) scale(7.54331 10.9105)">
<stop offset="0.270711" stop-color="#A1D3FF"/>
<stop offset="0.813393" stop-color="#A1D3FF" stop-opacity="0"/>
</radialGradient>
<radialGradient id="paint6_radial_1011_748" cx="0" cy="0" r="1" gradientUnits="userSpaceOnUse" gradientTransform="translate(34.8142 6.72285) rotate(-41.6581) scale(8.98568 22.0425)">
<stop stop-color="#E3ACFD"/>
<stop offset="0.816041" stop-color="#9FA2FF" stop-opacity="0"/>
</radialGradient>
<radialGradient id="paint7_radial_1011_748" cx="0" cy="0" r="1" gradientUnits="userSpaceOnUse" gradientTransform="translate(14.7777 4.5238) rotate(-90) scale(12.6667 15.9874)">
<stop offset="0.268201" stop-color="#8282FF"/>
<stop offset="1" stop-color="#3923B1"/>
</radialGradient>
<radialGradient id="paint8_radial_1011_748" cx="0" cy="0" r="1" gradientUnits="userSpaceOnUse" gradientTransform="translate(9.54338 3.22244) rotate(40.0516) scale(9.05196 13.0926)">
<stop offset="0.270711" stop-color="#A1D3FF"/>
<stop offset="0.813393" stop-color="#A1D3FF" stop-opacity="0"/>
</radialGradient>
<radialGradient id="paint9_radial_1011_748" cx="0" cy="0" r="1" gradientUnits="userSpaceOnUse" gradientTransform="translate(19.8219 3.00021) rotate(-41.6581) scale(10.7828 26.4511)">
<stop stop-color="#E3ACFD"/>
<stop offset="0.816041" stop-color="#9FA2FF" stop-opacity="0"/>
</radialGradient>
<radialGradient id="paint10_radial_1011_748" cx="0" cy="0" r="1" gradientUnits="userSpaceOnUse" gradientTransform="translate(0 20.0547) rotate(45) scale(23.8845)">
<stop offset="0.046875" stop-color="#688EFF"/>
<stop offset="0.946875" stop-color="#230F94"/>
</radialGradient>
<radialGradient id="paint11_radial_1011_748" cx="0" cy="0" r="1" gradientUnits="userSpaceOnUse" gradientTransform="translate(8.44444 30.188) rotate(90) scale(11.8222 13.7963)">
<stop offset="0.570647" stop-color="#6965F6" stop-opacity="0"/>
<stop offset="1" stop-color="#8F8FFF"/>
</radialGradient>
</defs>
</svg>
